# xmcd
#
# Track frame offsets:
#	150
#	20165
#	35130
#	53705
#	73505
#	92362
#	106607
#	124327
#	142442
#	159789
#	175104
#	190692
#	213009
#	230899
#	247756
#	262779
#	276941
#	292016
#
# Disc length: 4095 seconds
#
# Revision: 1
# Processed by: cddbd v1.5.1PL0 Copyright (c) Steve Scherf et al.
# Submitted via: EasyCDDAExtractor 7.0.5.4
#
DISCID=fe0ffd12
DTITLE=Yoshio Kimura - HFI Acoustic Guitar
DYEAR=2000
DGENRE=Musical
TTITLE0=北國之春
TTITLE1=瀨戶之花嫁
TTITLE2=長崎今日雨
TTITLE3=港町
TTITLE4=柳瀨
TTITLE5=城下町
TTITLE6=夢追酒
TTITLE7=花
TTITLE8=大阪
TTITLE9=戀
TTITLE10=堥n人生
TTITLE11=螢
TTITLE12=鳳仙花
TTITLE13=船
TTITLE14=女之階級
TTITLE15=走
TTITLE16=旅笠道中
TTITLE17=佐渡情話
EXTD=
EXTT0=
EXTT1=
EXTT2=
EXTT3=
EXTT4=
EXTT5=
EXTT6=
EXTT7=
EXTT8=
EXTT9=
EXTT10=
EXTT11=
EXTT12=
EXTT13=
EXTT14=
EXTT15=
EXTT16=
EXTT17=
PLAYORDER=
